#!OML:ASF F:\VICON\USERDATA\INSTALL\rory3\rory3.ASF
:FULLY-SPECIFIED
:DEGREES
79
root 0.2865300986228862 17.573139550771316 48.667697332139625 -2.8704562301865293 1.5487439905704639 -0.5830982455450835
lfemur 15.082838154502273 -4.6017931444963365 -25.01035809300041
ltibia 27.750944795800628
lfoot -4.470444891657317 -4.077307507266554
ltoes -7.41568637628445
rfemur -24.745217558709715 2.4877221551104634 22.751958785688036
rtibia 36.91696392179217
rfoot -6.453187119836112 -8.880611458597789
rtoes 1.8638192364161097
lowerback 10.79427684196197 -0.7028813071439945 -2.6118189041305166
upperback 0.2558387954713653 -1.1151824459865394 1.7606261284495794
thorax -5.650810350371579 -0.20062887918991631 3.218266187491934
lowerneck -16.551123352635646 -3.1796551933508903 -1.9199377461070668
upperneck 20.584464313414053 -4.285924288075846 2.466560952678245
head 9.327151708483118 -2.037513599482829 0.4503728788450254
lclavicle 3.0076445321087453e-16 5.650158596769764e-17
lhumerus -22.716425719805223 -2.9025001913709088 81.31975769442059
lradius 25.14373768277441
lwrist 7.127393103848736
lhand -28.998610502006514 20.404352638057944
lfingers 7.125020000000001
lthumb -2.427398960082762 50.28320687129528
rclavicle 2.993985447162913e-16 5.552075401257799e-17
rhumerus -36.63440346414716 -24.878558663353218 -73.953676157247
rradius 27.21991153347322
rwrist 4.939404606821061
rhand -18.040149579057257 23.35194796135989
rfingers 7.125020000000001
rthumb 7.911814886926489 -7.095163910799159
80
root 0.2545379464861275 17.611041794140093 48.29021188991358 -3.1400101789588732 1.3917466190338676 -1.4465523330749401
lfemur 14.646362977038144 -5.587664272066351 -23.99041155841891
ltibia 30.326172490222937
lfoot -4.565782879292543 -4.799326410126811
ltoes -6.691945635843453
rfemur -23.587840732278142 2.71046886505743 23.76798006647216
rtibia 37.2205878996545
rfoot -6.458354309707231 -8.488953937239208
rtoes 1.7911913798851422
lowerback 10.65660742362491 -0.7291354901308812 -2.1994193578765495
upperback 0.2391043919426657 -0.9968206372321948 1.9089172121512423
thorax -5.647765615102561 -0.19608385397997133 3.108149658285037
lowerneck -16.563493105145863 -3.2164731132202093 -1.897403706059145
upperneck 20.643787135408086 -4.196429044244268 2.4990713542816785
head 9.318710419261196 -2.0390324725730475 0.43797770473074055
lclavicle 3.00764453210957e-16 5.650158596775685e-17
lhumerus -22.66220105370978 -2.61921042250435 81.45309543770489
lradius 25.094242001693537
lwrist 6.813347322340354
lhand -29.14356098702889 19.9474945699402
lfingers 7.125020000000001
lthumb -2.451913156236925 50.21702535282791
rclavicle 2.993985447163207e-16 5.552075401259909e-17
rhumerus -37.56221037429715 -26.265289589738984 -72.79858826063347
rradius 27.18221852176325
rwrist 5.300263304866576
rhand -18.043268736121377 23.339225498080705
rfingers 7.125020000000001
rthumb 7.8887009417092155 -7.1399714617089645
81
root 0.23140701597951674 17.662092892578617 47.810435860345734 -3.434088918881046 1.211908714852477 -2.341992311965902
lfemur 12.250992114660157 -5.29897485830449 -22.475276189103813
ltibia 33.929793319321604
lfoot -3.47863076516129 -4.271375884188739
ltoes -6.401787072561099
rfemur -22.054002714386172 2.7595080697486836 24.988431494619604
rtibia 37.08473331604602
rfoot -6.502931608730047 -8.16334453833491
rtoes 2.075268501821968
lowerback 10.554590029169976 -0.6935950111371233 -1.557580324097693
upperback 0.22502393719112201 -0.7971683198036204 2.0633869695786697
thorax -5.631533891589467 -0.12125791426706059 3.0505527104371257
lowerneck -16.554731097562712 -3.2433253871904935 -1.8696117519470503
upperneck 20.68396361360026 -4.1331940239071105 2.5017364206649293
head 9.32690040035953 -2.032016919268727 0.43547845239858585
lclavicle 3.007644532109385e-16 5.650158596774356e-17
lhumerus -23.036373320666016 -2.221018531555892 81.63593248747414
lradius 25.07656672722329
lwrist 6.512385130840137
lhand -29.050273068842007 20.317407334691772
lfingers 7.125020000000001
lthumb -2.4252619058659795 50.312235451866705
rclavicle 2.9939854471633564e-16 5.552075401260981e-17
rhumerus -38.32184119013246 -27.54969591631386 -71.68994323758685
rradius 27.195030299885513
rwrist 5.562474825180587
rhand -18.0303807355048 23.341202406911844
rfingers 7.125020000000001
rthumb 7.860545610744818 -7.192605283083516
82
root 0.2091877246514683 17.71227616928179 46.754087271871846 -3.7300824597966535 0.9384874423972304 -3.229399277337053
lfemur 8.28034227776326 -4.309661970244024 -20.4366882585284
ltibia 38.12620374001445
lfoot -3.3087480511341787 -4.315558333170391
ltoes -5.792288558155715
rfemur -20.678481336552778 2.779458035036857 26.1435805456273
rtibia 36.60768124483232
rfoot -6.438843238138942 -7.757987845924385
rtoes 2.059546697279724
lowerback 10.477762533127635 -0.6243472480531711 -0.8606512254190919
upperback 0.22362892901777714 -0.4885078340927148 2.2243876439649894
thorax -5.649808725928026 -0.05356900919757082 2.755438160530717
lowerneck -16.54107436801048 -3.2665422000249844 -1.8466241913248966
upperneck 20.668757482599954 -4.1371152081167555 2.46212653066304
head 9.329063053811 -2.0284721975024538 0.4336798731284192
lclavicle 3.0076445321093813e-16 5.650158596774329e-17
lhumerus -23.60120952611757 -1.6190702099354852 81.91847928223325
lradius 25.10531284487549
lwrist 6.6828078434909735
lhand -29.17572822987363 19.893378210814937
lfingers 7.125020000000001
lthumb -2.3863557695200233 50.40869601446326
rclavicle 2.993985447163357e-16 5.552075401260984e-17
rhumerus -38.574569595086736 -28.285790126411776 -71.02977383089915
rradius 27.312299170746034
rwrist 5.627432275696539
rhand -18.047031816100493 23.287527252897704
rfingers 7.125020000000001
rthumb 7.880523689411484 -7.1702271767644365
